<svg width="512" height="512" viewBox="0 0 512 512" fill="none" xmlns="http://www.w3.org/2000/svg">
<rect width="512" height="512" rx="100" fill="#0A151F"/>
<path fill-rule="evenodd" clip-rule="evenodd" d="M89.4785 255.951L136.043 336.604H229.173L275.738 255.951L229.173 175.299H136.043L89.4785 255.951ZM131.304 167.09L80 255.951L131.304 344.813H233.912L282.818 260.105L285.216 255.951L282.875 251.896L233.912 167.09H131.304Z" fill="#5DFDDD"/>
<path fill-rule="evenodd" clip-rule="evenodd" d="M282.827 251.896L236.262 171.244L282.827 90.5911H375.957L422.521 171.244L375.957 251.896H282.875H282.827ZM383.066 256L432 340.756L380.696 429.618L278.088 429.618L226.784 340.756L275.718 256L226.784 171.244L278.088 82.3824H380.696L432 171.244L383.066 256ZM375.957 260.104L380.696 260.105L383.066 256L380.696 251.895L375.957 251.896H282.875L285.216 255.951L282.818 260.105L282.827 260.104L236.262 340.756L282.827 421.409L375.957 421.409L422.521 340.756L375.957 260.104Z" fill="#5DFDDD"/>
<path d="M282.827 260.104H375.957L380.696 260.105L383.066 256L380.696 251.895L375.957 251.896H282.875L285.216 255.951L282.818 260.105L282.827 260.104Z" fill="#5DFDDD"/>
</svg>
