<svg width="28" height="33" viewBox="0 0 28 33" fill="none" xmlns="http://www.w3.org/2000/svg">
<g clip-path="url(#clip0_11_13322)">
<path fill-rule="evenodd" clip-rule="evenodd" d="M36.5503 24.3224L32.2533 16.8798H23.6593L19.3623 24.3224L23.6593 31.765H32.2533L36.5503 24.3224ZM32.9782 33.0205L38 24.3224L32.9782 15.6243H22.9345L18.2718 23.7003L17.9127 24.3224L18.2729 24.9463L22.9345 33.0205H32.9782Z" fill="#5DFDDD"/>
<path fill-rule="evenodd" clip-rule="evenodd" d="M18.3023 24.9557L22.5993 32.3984L18.3023 39.841H9.70829L5.4113 32.3984L9.70829 24.9557H18.3023ZM24.049 32.3984L19.0271 41.0964H8.98345L3.96162 32.3984L8.62377 24.3233L8.98345 24.9463H18.2729L17.9127 24.3224L18.2718 23.7003H8.98345L8.62377 24.3233L3.96162 16.2482L8.98345 7.55012H19.0271L24.049 16.2482L19.3868 24.3233L24.049 32.3984ZM18.3023 8.80558L22.5993 16.2482L18.3023 23.6908H9.70829L5.4113 16.2482L9.70829 8.80558H18.3023Z" fill="#5DFDDD"/>
<path d="M8.62377 24.3233L8.98345 24.9463H18.2729L17.9127 24.3224L18.2718 23.7003H8.98345L8.62377 24.3233Z" fill="#5DFDDD"/>
<path fill-rule="evenodd" clip-rule="evenodd" d="M-8.55032 24.3242L-4.25333 31.7668H4.34067L8.63766 24.3242L4.34067 16.8816H-4.25333L-8.55032 24.3242ZM-4.97816 15.6261L-10 24.3242L-4.97816 33.0223H5.06551L9.72816 24.9463L10.0873 24.3242L9.72715 23.7003L5.06551 15.6261H-4.97816Z" fill="#5DFDDD"/>
<path fill-rule="evenodd" clip-rule="evenodd" d="M9.69772 23.6908L5.40072 16.2482L9.69772 8.80561H18.2917L22.5887 16.2482L18.2917 23.6908H9.69772ZM3.95104 16.2482L8.97288 7.55015H19.0165L24.0384 16.2482L19.3762 24.3233L19.0165 23.7003H9.72715L10.0873 24.3242L9.72816 24.9463H19.0165L19.3762 24.3233L24.0384 32.3984L19.0165 41.0965H8.97288L3.95104 32.3984L8.61319 24.3233L3.95104 16.2482ZM9.69772 39.841L5.40072 32.3984L9.69772 24.9558H18.2917L22.5887 32.3984L18.2917 39.841H9.69772Z" fill="#5DFDDD"/>
<path d="M19.3762 24.3233L19.0165 23.7003H9.72715L10.0873 24.3242L9.72816 24.9463H19.0165L19.3762 24.3233Z" fill="#5DFDDD"/>
<path fill-rule="evenodd" clip-rule="evenodd" d="M36.5503 8.17757L32.2533 15.6202H23.6593L19.3623 8.17757L23.6593 0.734954H32.2533L36.5503 8.17757ZM32.9782 -0.520505L38 8.17757L32.9782 16.8756H22.9345L18.2718 8.79968L17.9127 8.17757L18.2729 7.5537L22.9345 -0.520505H32.9782Z" fill="#5DFDDD"/>
<path fill-rule="evenodd" clip-rule="evenodd" d="M18.3023 7.54422L22.5993 0.101606L18.3023 -7.34101H9.70829L5.4113 0.101606L9.70829 7.54422H18.3023ZM24.049 0.101606L19.0271 -8.59647H8.98345L3.96162 0.101606L8.62377 8.17669L8.98345 7.5537H18.2729L17.9127 8.17757L18.2718 8.79968H8.98345L8.62377 8.17669L3.96162 16.2518L8.98345 24.9498H19.0271L24.049 16.2518L19.3868 8.17669L24.049 0.101606ZM18.3023 23.6944L22.5993 16.2518L18.3023 8.80915H9.70829L5.4113 16.2518L9.70829 23.6944H18.3023Z" fill="#5DFDDD"/>
<path d="M8.62377 8.17669L8.98345 7.5537H18.2729L17.9127 8.17757L18.2718 8.79968H8.98345L8.62377 8.17669Z" fill="#5DFDDD"/>
<path fill-rule="evenodd" clip-rule="evenodd" d="M-8.55032 8.17578L-4.25333 0.733163H4.34067L8.63766 8.17578L4.34067 15.6184H-4.25333L-8.55032 8.17578ZM-4.97816 16.8739L-10 8.17578L-4.97816 -0.522296H5.06551L9.72816 7.55367L10.0873 8.17578L9.72715 8.79965L5.06551 16.8739H-4.97816Z" fill="#5DFDDD"/>
<path fill-rule="evenodd" clip-rule="evenodd" d="M9.69772 8.80913L5.40072 16.2517L9.69772 23.6944H18.2917L22.5887 16.2517L18.2917 8.80913H9.69772ZM3.95104 16.2517L8.97288 24.9498H19.0165L24.0384 16.2517L19.3762 8.17666L19.0165 8.79965H9.72715L10.0873 8.17578L9.72816 7.55367H19.0165L19.3762 8.17666L24.0384 0.101578L19.0165 -8.5965H8.97288L3.95104 0.101578L8.61319 8.17666L3.95104 16.2517ZM9.69772 -7.34104L5.40072 0.101578L9.69772 7.54419H18.2917L22.5887 0.101578L18.2917 -7.34104H9.69772Z" fill="#5DFDDD"/>
<path d="M19.3762 8.17666L19.0165 8.79965H9.72715L10.0873 8.17578L9.72816 7.55367H19.0165L19.3762 8.17666Z" fill="#5DFDDD"/>
</g>
<defs>
<clipPath id="clip0_11_13322">
<rect width="28" height="32.5" fill="white"/>
</clipPath>
</defs>
</svg>
