<svg width="1288" height="512" viewBox="0 0 1288 512" fill="none" xmlns="http://www.w3.org/2000/svg">
<rect width="1288" height="512" rx="30" fill="#0A151F"/>
<path fill-rule="evenodd" clip-rule="evenodd" d="M74.3402 255.947L125.138 343.932H226.734L277.532 255.947L226.734 167.962H125.138L74.3402 255.947ZM119.968 159.007L64 255.947L119.968 352.886H231.904L285.256 260.478L287.872 255.947L285.318 251.523L231.904 159.007H119.968Z" fill="#5DFDDD"/>
<path fill-rule="evenodd" clip-rule="evenodd" d="M285.266 251.523L234.468 163.539L285.266 75.5539H386.862L437.66 163.539L386.862 251.523H285.318H285.266ZM394.617 256L448 348.461L392.032 445.401L280.096 445.401L224.128 348.461L277.51 256L224.128 163.539L280.096 66.599L392.032 66.599L448 163.539L394.617 256ZM386.862 260.477L392.032 260.478L394.617 256L392.032 251.522L386.862 251.523H285.318L287.872 255.947L285.256 260.478L285.266 260.477L234.468 348.461L285.266 436.446L386.862 436.446L437.66 348.461L386.862 260.477Z" fill="#5DFDDD"/>
<path d="M285.266 260.477H386.862L392.032 260.478L394.617 256L392.032 251.522L386.862 251.523H285.318L287.872 255.947L285.256 260.478L285.266 260.477Z" fill="#5DFDDD"/>
<path d="M562.16 287L602.48 185.336H622.928L662.816 287H638.912L608.384 202.616H616.592L585.632 287H562.16ZM585.056 268.568V250.136H640.496V268.568H585.056ZM672.682 287V182.456H694.714V287H672.682ZM741.333 288.584C734.901 288.584 729.189 287.288 724.197 284.696C719.301 282.008 715.461 278.36 712.677 273.752C709.893 269.048 708.501 263.672 708.501 257.624V217.016H730.533V257.336C730.533 259.736 730.917 261.8 731.685 263.528C732.549 265.256 733.797 266.6 735.429 267.56C737.061 268.52 739.029 269 741.333 269C744.597 269 747.189 267.992 749.109 265.976C751.029 263.864 751.989 260.984 751.989 257.336V217.016H774.021V257.48C774.021 263.624 772.629 269.048 769.845 273.752C767.061 278.36 763.221 282.008 758.325 284.696C753.429 287.288 747.765 288.584 741.333 288.584ZM787.854 287V217.016H809.886V287H787.854ZM809.886 248.552L800.67 241.352C802.494 233.192 805.566 226.856 809.886 222.344C814.206 217.832 820.206 215.576 827.886 215.576C831.246 215.576 834.174 216.104 836.67 217.16C839.262 218.12 841.518 219.656 843.438 221.768L830.334 238.328C829.374 237.272 828.174 236.456 826.734 235.88C825.294 235.304 823.662 235.016 821.838 235.016C818.19 235.016 815.262 236.168 813.054 238.472C810.942 240.68 809.886 244.04 809.886 248.552ZM876.57 288.44C870.139 288.44 864.379 286.856 859.291 283.688C854.299 280.52 850.315 276.2 847.339 270.728C844.459 265.256 843.019 259.016 843.019 252.008C843.019 245 844.459 238.76 847.339 233.288C850.315 227.816 854.299 223.496 859.291 220.328C864.379 217.16 870.139 215.576 876.57 215.576C881.275 215.576 885.499 216.488 889.243 218.312C893.083 220.136 896.203 222.68 898.603 225.944C901.003 229.112 902.347 232.76 902.635 236.888V267.128C902.347 271.256 901.003 274.952 898.603 278.216C896.299 281.384 893.227 283.88 889.387 285.704C885.547 287.528 881.275 288.44 876.57 288.44ZM881.035 268.568C885.739 268.568 889.531 267.032 892.411 263.96C895.291 260.792 896.731 256.808 896.731 252.008C896.731 248.744 896.059 245.864 894.715 243.368C893.467 240.872 891.643 238.952 889.243 237.608C886.939 236.168 884.251 235.448 881.179 235.448C878.107 235.448 875.371 236.168 872.971 237.608C870.667 238.952 868.795 240.872 867.355 243.368C866.011 245.864 865.339 248.744 865.339 252.008C865.339 255.176 866.011 258.008 867.355 260.504C868.699 263 870.571 264.968 872.971 266.408C875.371 267.848 878.059 268.568 881.035 268.568ZM895.867 287V268.136L899.179 251.144L895.867 234.152V217.016H917.467V287H895.867ZM966.819 288.584C959.619 288.584 953.091 287 947.235 283.832C941.379 280.664 936.771 276.296 933.411 270.728C930.051 265.16 928.371 258.92 928.371 252.008C928.371 245 930.051 238.76 933.411 233.288C936.867 227.72 941.523 223.352 947.379 220.184C953.235 217.016 959.811 215.432 967.107 215.432C972.579 215.432 977.571 216.392 982.083 218.312C986.691 220.136 990.771 222.92 994.323 226.664L980.211 240.776C978.579 238.952 976.659 237.608 974.451 236.744C972.339 235.88 969.891 235.448 967.107 235.448C963.939 235.448 961.107 236.168 958.611 237.608C956.211 238.952 954.291 240.872 952.851 243.368C951.507 245.768 950.835 248.6 950.835 251.864C950.835 255.128 951.507 258.008 952.851 260.504C954.291 263 956.259 264.968 958.755 266.408C961.251 267.848 964.035 268.568 967.107 268.568C969.987 268.568 972.531 268.088 974.739 267.128C977.043 266.072 979.011 264.632 980.643 262.808L994.611 276.92C990.963 280.76 986.835 283.688 982.227 285.704C977.619 287.624 972.483 288.584 966.819 288.584ZM1036.43 288.584C1029.23 288.584 1022.7 287 1016.84 283.832C1011.08 280.568 1006.52 276.152 1003.16 270.584C999.801 265.016 998.121 258.776 998.121 251.864C998.121 244.952 999.801 238.76 1003.16 233.288C1006.52 227.816 1011.08 223.496 1016.84 220.328C1022.6 217.064 1029.13 215.432 1036.43 215.432C1043.72 215.432 1050.25 217.016 1056.01 220.184C1061.77 223.352 1066.33 227.72 1069.69 233.288C1073.05 238.76 1074.73 244.952 1074.73 251.864C1074.73 258.776 1073.05 265.016 1069.69 270.584C1066.33 276.152 1061.77 280.568 1056.01 283.832C1050.25 287 1043.72 288.584 1036.43 288.584ZM1036.43 268.568C1039.59 268.568 1042.38 267.896 1044.78 266.552C1047.18 265.112 1049 263.144 1050.25 260.648C1051.59 258.056 1052.27 255.128 1052.27 251.864C1052.27 248.6 1051.59 245.768 1050.25 243.368C1048.91 240.872 1047.03 238.952 1044.63 237.608C1042.33 236.168 1039.59 235.448 1036.43 235.448C1033.35 235.448 1030.62 236.168 1028.22 237.608C1025.82 238.952 1023.95 240.872 1022.6 243.368C1021.26 245.864 1020.59 248.744 1020.59 252.008C1020.59 255.176 1021.26 258.056 1022.6 260.648C1023.95 263.144 1025.82 265.112 1028.22 266.552C1030.62 267.896 1033.35 268.568 1036.43 268.568ZM1085.7 287V217.016H1107.73V287H1085.7ZM1107.73 248.552L1098.51 241.352C1100.34 233.192 1103.41 226.856 1107.73 222.344C1112.05 217.832 1118.05 215.576 1125.73 215.576C1129.09 215.576 1132.02 216.104 1134.51 217.16C1137.11 218.12 1139.36 219.656 1141.28 221.768L1128.18 238.328C1127.22 237.272 1126.02 236.456 1124.58 235.88C1123.14 235.304 1121.51 235.016 1119.68 235.016C1116.03 235.016 1113.11 236.168 1110.9 238.472C1108.79 240.68 1107.73 244.04 1107.73 248.552ZM1174.99 288.44C1168.37 288.44 1162.46 286.856 1157.28 283.688C1152.19 280.52 1148.16 276.2 1145.18 270.728C1142.3 265.256 1140.86 259.016 1140.86 252.008C1140.86 245 1142.3 238.76 1145.18 233.288C1148.16 227.816 1152.19 223.496 1157.28 220.328C1162.46 217.16 1168.37 215.576 1174.99 215.576C1179.79 215.576 1184.11 216.488 1187.95 218.312C1191.89 220.136 1195.1 222.68 1197.6 225.944C1200.19 229.112 1201.63 232.76 1201.92 236.888V266.408C1201.63 270.536 1200.24 274.28 1197.74 277.64C1195.25 280.904 1192.03 283.544 1188.09 285.56C1184.16 287.48 1179.79 288.44 1174.99 288.44ZM1178.88 268.568C1182.05 268.568 1184.78 267.896 1187.09 266.552C1189.39 265.112 1191.21 263.144 1192.56 260.648C1193.9 258.152 1194.57 255.272 1194.57 252.008C1194.57 248.744 1193.9 245.912 1192.56 243.512C1191.31 241.016 1189.49 239.048 1187.09 237.608C1184.78 236.168 1182.09 235.448 1179.02 235.448C1175.95 235.448 1173.21 236.168 1170.81 237.608C1168.51 239.048 1166.64 241.016 1165.2 243.512C1163.85 246.008 1163.18 248.84 1163.18 252.008C1163.18 255.176 1163.85 258.008 1165.2 260.504C1166.54 263 1168.41 264.968 1170.81 266.408C1173.21 267.848 1175.9 268.568 1178.88 268.568ZM1215.31 287H1193.71V268.136L1197.02 251.144L1193.28 234.152V182.456H1215.31V287Z" fill="white"/>
<path d="M571.736 360.36C570.488 360.36 569.36 360.096 568.352 359.568C567.344 359.04 566.54 358.32 565.94 357.408C565.34 356.496 565.016 355.476 564.968 354.348V348.156C565.016 347.028 565.34 346.02 565.94 345.132C566.564 344.22 567.38 343.512 568.388 343.008C569.396 342.504 570.512 342.252 571.736 342.252C573.344 342.252 574.784 342.648 576.056 343.44C577.328 344.232 578.324 345.312 579.044 346.68C579.788 348.048 580.16 349.596 580.16 351.324C580.16 353.028 579.788 354.564 579.044 355.932C578.324 357.3 577.328 358.38 576.056 359.172C574.784 359.964 573.344 360.36 571.736 360.36ZM570.944 356.004C571.808 356.004 572.564 355.812 573.212 355.428C573.884 355.02 574.4 354.468 574.76 353.772C575.144 353.052 575.336 352.224 575.336 351.288C575.336 350.376 575.144 349.572 574.76 348.876C574.4 348.156 573.884 347.604 573.212 347.22C572.54 346.812 571.772 346.608 570.908 346.608C570.044 346.608 569.276 346.812 568.604 347.22C567.956 347.604 567.44 348.156 567.056 348.876C566.696 349.572 566.516 350.376 566.516 351.288C566.516 352.224 566.696 353.052 567.056 353.772C567.44 354.468 567.968 355.02 568.64 355.428C569.312 355.812 570.08 356.004 570.944 356.004ZM562.088 360V333.972H566.804V346.896L566.012 351.072L566.768 355.32V360H562.088ZM588.197 360.144L580.925 342.612H586.037L590.861 356.004H589.133L594.137 342.612H599.285L591.545 360.108L588.197 360.144ZM583.373 367.272L588.665 356.076L591.545 360.108L588.377 367.272H583.373ZM618.353 360.36C617.105 360.36 615.977 360.108 614.969 359.604C613.961 359.076 613.157 358.368 612.557 357.48C611.957 356.592 611.633 355.572 611.585 354.42V348.264C611.633 347.112 611.957 346.092 612.557 345.204C613.181 344.292 613.985 343.572 614.969 343.044C615.977 342.516 617.105 342.252 618.353 342.252C619.961 342.252 621.401 342.648 622.673 343.44C623.945 344.232 624.941 345.312 625.661 346.68C626.405 348.048 626.777 349.596 626.777 351.324C626.777 353.028 626.405 354.564 625.661 355.932C624.941 357.3 623.945 358.38 622.673 359.172C621.401 359.964 619.961 360.36 618.353 360.36ZM617.525 356.004C618.389 356.004 619.157 355.812 619.829 355.428C620.501 355.02 621.017 354.468 621.377 353.772C621.761 353.052 621.953 352.224 621.953 351.288C621.953 350.376 621.761 349.572 621.377 348.876C621.017 348.156 620.501 347.604 619.829 347.22C619.157 346.812 618.389 346.608 617.525 346.608C616.685 346.608 615.929 346.812 615.257 347.22C614.585 347.604 614.057 348.156 613.673 348.876C613.313 349.572 613.133 350.376 613.133 351.288C613.133 352.224 613.313 353.052 613.673 353.772C614.057 354.468 614.573 355.02 615.221 355.428C615.893 355.812 616.661 356.004 617.525 356.004ZM608.705 367.272V342.612H613.421V347.184L612.629 351.396L613.385 355.608V367.272H608.705ZM638.185 360.36C636.361 360.36 634.741 359.976 633.325 359.208C631.909 358.416 630.781 357.336 629.941 355.968C629.125 354.6 628.717 353.04 628.717 351.288C628.717 349.56 629.113 348.024 629.905 346.68C630.721 345.312 631.825 344.232 633.217 343.44C634.609 342.624 636.157 342.216 637.861 342.216C639.541 342.216 641.017 342.6 642.289 343.368C643.585 344.112 644.593 345.144 645.313 346.464C646.057 347.76 646.429 349.236 646.429 350.892C646.429 351.204 646.405 351.528 646.357 351.864C646.333 352.176 646.273 352.536 646.177 352.944L631.561 352.98V349.452L643.981 349.416L642.073 350.892C642.025 349.86 641.833 348.996 641.497 348.3C641.185 347.604 640.717 347.076 640.093 346.716C639.493 346.332 638.749 346.14 637.861 346.14C636.925 346.14 636.109 346.356 635.413 346.788C634.717 347.196 634.177 347.784 633.793 348.552C633.433 349.296 633.253 350.184 633.253 351.216C633.253 352.272 633.445 353.196 633.829 353.988C634.237 354.756 634.813 355.356 635.557 355.788C636.301 356.196 637.165 356.4 638.149 356.4C639.037 356.4 639.841 356.256 640.561 355.968C641.281 355.656 641.905 355.2 642.433 354.6L645.205 357.372C644.365 358.356 643.333 359.1 642.109 359.604C640.909 360.108 639.601 360.36 638.185 360.36ZM656.69 360.36C655.082 360.36 653.642 359.964 652.37 359.172C651.098 358.38 650.09 357.3 649.346 355.932C648.626 354.564 648.266 353.028 648.266 351.324C648.266 349.596 648.626 348.048 649.346 346.68C650.09 345.312 651.086 344.232 652.334 343.44C653.606 342.648 655.058 342.252 656.69 342.252C657.938 342.252 659.054 342.504 660.038 343.008C661.046 343.512 661.85 344.22 662.45 345.132C663.074 346.02 663.41 347.028 663.458 348.156V354.348C663.41 355.476 663.086 356.496 662.486 357.408C661.886 358.32 661.082 359.04 660.074 359.568C659.066 360.096 657.938 360.36 656.69 360.36ZM657.482 356.004C658.37 356.004 659.138 355.812 659.786 355.428C660.458 355.02 660.974 354.468 661.334 353.772C661.718 353.052 661.91 352.224 661.91 351.288C661.91 350.376 661.718 349.572 661.334 348.876C660.974 348.156 660.458 347.604 659.786 347.22C659.138 346.812 658.382 346.608 657.518 346.608C656.63 346.608 655.85 346.812 655.178 347.22C654.53 347.628 654.014 348.18 653.63 348.876C653.27 349.572 653.09 350.376 653.09 351.288C653.09 352.224 653.27 353.052 653.63 353.772C654.014 354.468 654.542 355.02 655.214 355.428C655.886 355.812 656.642 356.004 657.482 356.004ZM666.338 360H661.658V355.32L662.414 351.072L661.622 346.896V333.972H666.338V360ZM670.51 360V342.612H675.226V360H670.51ZM675.226 350.388L673.39 349.164C673.606 347.028 674.23 345.348 675.262 344.124C676.294 342.876 677.782 342.252 679.726 342.252C680.566 342.252 681.322 342.396 681.994 342.684C682.666 342.948 683.278 343.392 683.83 344.016L680.878 347.4C680.614 347.112 680.29 346.896 679.906 346.752C679.546 346.608 679.126 346.536 678.646 346.536C677.638 346.536 676.81 346.86 676.162 347.508C675.538 348.132 675.226 349.092 675.226 350.388ZM693.166 360.36C691.414 360.36 689.83 359.964 688.414 359.172C687.022 358.356 685.906 357.264 685.066 355.896C684.25 354.504 683.842 352.956 683.842 351.252C683.842 349.548 684.25 348.024 685.066 346.68C685.882 345.312 686.998 344.232 688.414 343.44C689.83 342.624 691.402 342.216 693.13 342.216C694.906 342.216 696.49 342.624 697.882 343.44C699.298 344.232 700.414 345.312 701.23 346.68C702.046 348.024 702.454 349.548 702.454 351.252C702.454 352.956 702.046 354.504 701.23 355.896C700.414 357.264 699.298 358.356 697.882 359.172C696.49 359.964 694.918 360.36 693.166 360.36ZM693.13 355.968C694.018 355.968 694.798 355.776 695.47 355.392C696.166 354.984 696.694 354.432 697.054 353.736C697.438 353.016 697.63 352.2 697.63 351.288C697.63 350.376 697.438 349.572 697.054 348.876C696.67 348.18 696.142 347.64 695.47 347.256C694.798 346.848 694.018 346.644 693.13 346.644C692.266 346.644 691.498 346.848 690.826 347.256C690.154 347.64 689.626 348.18 689.242 348.876C688.858 349.572 688.666 350.376 688.666 351.288C688.666 352.2 688.858 353.016 689.242 353.736C689.626 354.432 690.154 354.984 690.826 355.392C691.498 355.776 692.266 355.968 693.13 355.968ZM706.193 352.944V348.66H718.649V352.944H706.193ZM734.522 360V350.028C734.522 348.996 734.198 348.156 733.55 347.508C732.902 346.86 732.062 346.536 731.03 346.536C730.358 346.536 729.758 346.68 729.23 346.968C728.702 347.256 728.282 347.664 727.97 348.192C727.682 348.72 727.538 349.332 727.538 350.028L725.702 349.092C725.702 347.724 725.99 346.536 726.566 345.528C727.142 344.496 727.934 343.692 728.942 343.116C729.974 342.54 731.15 342.252 732.47 342.252C733.79 342.252 734.954 342.54 735.962 343.116C736.994 343.692 737.798 344.484 738.374 345.492C738.95 346.5 739.238 347.664 739.238 348.984V360H734.522ZM722.822 360V333.972H727.538V360H722.822ZM751.353 360.36C749.529 360.36 747.909 359.976 746.493 359.208C745.077 358.416 743.949 357.336 743.109 355.968C742.293 354.6 741.885 353.04 741.885 351.288C741.885 349.56 742.281 348.024 743.073 346.68C743.889 345.312 744.993 344.232 746.385 343.44C747.777 342.624 749.325 342.216 751.029 342.216C752.709 342.216 754.185 342.6 755.457 343.368C756.753 344.112 757.761 345.144 758.481 346.464C759.225 347.76 759.597 349.236 759.597 350.892C759.597 351.204 759.573 351.528 759.525 351.864C759.501 352.176 759.441 352.536 759.345 352.944L744.729 352.98V349.452L757.149 349.416L755.241 350.892C755.193 349.86 755.001 348.996 754.665 348.3C754.353 347.604 753.885 347.076 753.261 346.716C752.661 346.332 751.917 346.14 751.029 346.14C750.093 346.14 749.277 346.356 748.581 346.788C747.885 347.196 747.345 347.784 746.961 348.552C746.601 349.296 746.421 350.184 746.421 351.216C746.421 352.272 746.613 353.196 746.997 353.988C747.405 354.756 747.981 355.356 748.725 355.788C749.469 356.196 750.333 356.4 751.317 356.4C752.205 356.4 753.009 356.256 753.729 355.968C754.449 355.656 755.073 355.2 755.601 354.6L758.373 357.372C757.533 358.356 756.501 359.1 755.277 359.604C754.077 360.108 752.769 360.36 751.353 360.36ZM774.214 360V350.028C774.214 348.996 773.89 348.156 773.242 347.508C772.594 346.86 771.754 346.536 770.722 346.536C770.05 346.536 769.45 346.68 768.922 346.968C768.394 347.256 767.974 347.664 767.662 348.192C767.374 348.72 767.23 349.332 767.23 350.028L765.394 349.092C765.394 347.724 765.682 346.536 766.258 345.528C766.858 344.496 767.674 343.692 768.706 343.116C769.762 342.54 770.95 342.252 772.27 342.252C773.542 342.252 774.682 342.576 775.69 343.224C776.698 343.848 777.49 344.676 778.066 345.708C778.642 346.716 778.93 347.808 778.93 348.984V360H774.214ZM762.514 360V342.612H767.23V360H762.514ZM782.729 360V342.612H787.445V360H782.729ZM787.445 350.388L785.609 349.164C785.825 347.028 786.449 345.348 787.481 344.124C788.513 342.876 790.001 342.252 791.945 342.252C792.785 342.252 793.541 342.396 794.213 342.684C794.885 342.948 795.497 343.392 796.049 344.016L793.097 347.4C792.833 347.112 792.509 346.896 792.125 346.752C791.765 346.608 791.345 346.536 790.865 346.536C789.857 346.536 789.029 346.86 788.381 347.508C787.757 348.132 787.445 349.092 787.445 350.388ZM797.705 360V342.612H802.457V360H797.705ZM800.081 339.804C799.313 339.804 798.677 339.552 798.173 339.048C797.669 338.52 797.417 337.872 797.417 337.104C797.417 336.36 797.669 335.724 798.173 335.196C798.677 334.668 799.313 334.404 800.081 334.404C800.873 334.404 801.509 334.668 801.989 335.196C802.493 335.724 802.745 336.36 802.745 337.104C802.745 337.872 802.493 338.52 801.989 339.048C801.509 339.552 800.873 339.804 800.081 339.804ZM813.907 360.36C812.323 360.36 810.895 359.964 809.623 359.172C808.351 358.38 807.355 357.3 806.635 355.932C805.915 354.564 805.555 353.028 805.555 351.324C805.555 349.596 805.915 348.048 806.635 346.68C807.355 345.312 808.351 344.232 809.623 343.44C810.895 342.648 812.323 342.252 813.907 342.252C815.155 342.252 816.271 342.504 817.255 343.008C818.239 343.512 819.019 344.22 819.595 345.132C820.195 346.02 820.519 347.028 820.567 348.156V354.42C820.519 355.572 820.195 356.592 819.595 357.48C819.019 358.368 818.239 359.076 817.255 359.604C816.271 360.108 815.155 360.36 813.907 360.36ZM814.771 356.004C816.091 356.004 817.159 355.572 817.975 354.708C818.791 353.82 819.199 352.68 819.199 351.288C819.199 350.376 819.007 349.572 818.623 348.876C818.263 348.156 817.747 347.604 817.075 347.22C816.427 346.812 815.659 346.608 814.771 346.608C813.907 346.608 813.139 346.812 812.467 347.22C811.819 347.604 811.303 348.156 810.919 348.876C810.559 349.572 810.379 350.376 810.379 351.288C810.379 352.224 810.559 353.052 810.919 353.772C811.303 354.468 811.819 355.02 812.467 355.428C813.139 355.812 813.907 356.004 814.771 356.004ZM818.947 367.272V355.608L819.703 351.396L818.947 347.184V342.612H823.627V367.272H818.947ZM835.215 360.36C833.679 360.36 832.311 360.036 831.111 359.388C829.935 358.74 829.011 357.84 828.339 356.688C827.667 355.536 827.331 354.204 827.331 352.692V342.612H832.083V352.584C832.083 353.304 832.203 353.928 832.443 354.456C832.683 354.96 833.043 355.344 833.523 355.608C834.003 355.872 834.567 356.004 835.215 356.004C836.199 356.004 836.967 355.704 837.519 355.104C838.071 354.504 838.347 353.664 838.347 352.584V342.612H843.063V352.692C843.063 354.228 842.727 355.572 842.055 356.724C841.407 357.876 840.483 358.776 839.283 359.424C838.107 360.048 836.751 360.36 835.215 360.36ZM855.134 360.36C853.31 360.36 851.69 359.976 850.274 359.208C848.858 358.416 847.73 357.336 846.89 355.968C846.074 354.6 845.666 353.04 845.666 351.288C845.666 349.56 846.062 348.024 846.854 346.68C847.67 345.312 848.774 344.232 850.166 343.44C851.558 342.624 853.106 342.216 854.81 342.216C856.49 342.216 857.966 342.6 859.238 343.368C860.534 344.112 861.542 345.144 862.262 346.464C863.006 347.76 863.378 349.236 863.378 350.892C863.378 351.204 863.354 351.528 863.306 351.864C863.282 352.176 863.222 352.536 863.126 352.944L848.51 352.98V349.452L860.93 349.416L859.022 350.892C858.974 349.86 858.782 348.996 858.446 348.3C858.134 347.604 857.666 347.076 857.042 346.716C856.442 346.332 855.698 346.14 854.81 346.14C853.874 346.14 853.058 346.356 852.362 346.788C851.666 347.196 851.126 347.784 850.742 348.552C850.382 349.296 850.202 350.184 850.202 351.216C850.202 352.272 850.394 353.196 850.778 353.988C851.186 354.756 851.762 355.356 852.506 355.788C853.25 356.196 854.114 356.4 855.098 356.4C855.986 356.4 856.79 356.256 857.51 355.968C858.23 355.656 858.854 355.2 859.382 354.6L862.154 357.372C861.314 358.356 860.282 359.1 859.058 359.604C857.858 360.108 856.55 360.36 855.134 360.36ZM866.998 352.944V348.66H879.454V352.944H866.998ZM889.603 360.396C888.619 360.396 887.647 360.264 886.687 360C885.751 359.736 884.887 359.376 884.095 358.92C883.303 358.44 882.619 357.864 882.043 357.192L884.851 354.348C885.451 355.02 886.147 355.524 886.939 355.86C887.731 356.196 888.607 356.364 889.567 356.364C890.335 356.364 890.911 356.256 891.295 356.04C891.703 355.824 891.907 355.5 891.907 355.068C891.907 354.588 891.691 354.216 891.259 353.952C890.851 353.688 890.311 353.472 889.639 353.304C888.967 353.112 888.259 352.908 887.515 352.692C886.795 352.452 886.099 352.152 885.427 351.792C884.755 351.408 884.203 350.892 883.771 350.244C883.363 349.572 883.159 348.708 883.159 347.652C883.159 346.548 883.423 345.588 883.951 344.772C884.503 343.956 885.283 343.32 886.291 342.864C887.299 342.408 888.487 342.18 889.855 342.18C891.295 342.18 892.591 342.432 893.743 342.936C894.919 343.44 895.891 344.196 896.659 345.204L893.815 348.048C893.287 347.4 892.687 346.932 892.015 346.644C891.367 346.356 890.659 346.212 889.891 346.212C889.195 346.212 888.655 346.32 888.271 346.536C887.911 346.752 887.731 347.052 887.731 347.436C887.731 347.868 887.935 348.204 888.343 348.444C888.775 348.684 889.327 348.9 889.999 349.092C890.671 349.26 891.367 349.464 892.087 349.704C892.831 349.92 893.527 350.232 894.175 350.64C894.847 351.048 895.387 351.588 895.795 352.26C896.227 352.932 896.443 353.796 896.443 354.852C896.443 356.556 895.831 357.912 894.607 358.92C893.383 359.904 891.715 360.396 889.603 360.396ZM909.271 360.36C908.023 360.36 906.895 360.096 905.887 359.568C904.879 359.04 904.075 358.32 903.475 357.408C902.875 356.496 902.551 355.476 902.503 354.348V348.156C902.551 347.028 902.875 346.02 903.475 345.132C904.099 344.22 904.915 343.512 905.923 343.008C906.931 342.504 908.047 342.252 909.271 342.252C910.879 342.252 912.319 342.648 913.591 343.44C914.863 344.232 915.859 345.312 916.579 346.68C917.323 348.048 917.695 349.596 917.695 351.324C917.695 353.028 917.323 354.564 916.579 355.932C915.859 357.3 914.863 358.38 913.591 359.172C912.319 359.964 910.879 360.36 909.271 360.36ZM908.479 356.004C909.343 356.004 910.099 355.812 910.747 355.428C911.419 355.02 911.935 354.468 912.295 353.772C912.679 353.052 912.871 352.224 912.871 351.288C912.871 350.376 912.679 349.572 912.295 348.876C911.935 348.156 911.419 347.604 910.747 347.22C910.075 346.812 909.307 346.608 908.443 346.608C907.579 346.608 906.811 346.812 906.139 347.22C905.491 347.604 904.975 348.156 904.591 348.876C904.231 349.572 904.051 350.376 904.051 351.288C904.051 352.224 904.231 353.052 904.591 353.772C904.975 354.468 905.503 355.02 906.175 355.428C906.847 355.812 907.615 356.004 908.479 356.004ZM899.623 360V333.972H904.339V346.896L903.547 351.072L904.303 355.32V360H899.623Z" fill="#CCE2F5"/>
</svg>
